<svg width="106" height="106" version="1.1" viewBox="0 0 28.046 28.046" xmlns="http://www.w3.org/2000/svg"><path d="m11.77 27.046c-9.5645-1.7162-14.143-12.823-8.5459-20.732 5.68-8.0266 18.143-7.1451 22.588 1.5976 4.9056 9.6484-3.4506 21.035-14.042 19.135zm3.5005-0.49892c10.615-1.1981 15.199-13.916 7.7324-21.456-7.2112-7.2818-19.665-3.3605-21.436 6.7493-1.242 7.0919 3.8408 13.862 11.033 14.695 1.3101 0.15179 1.4202 0.15225 2.6703 0.01114zm-2.5315-7.1823c-2.9126-1.645-3.2749-2.3621-3.2307-6.3943l0.0334-3.0453 2.0549-0.8357c2.5055-1.019 2.1913-1.0164 4.6315-0.03798 2.4494 0.98207 2.2144 0.55884 2.2135 3.9872-0.0011 3.6824-0.22072 4.2296-2.2816 5.6838-1.9615 1.3841-2.0712 1.4047-3.421 0.64236zm0.87686-1.7494c0.0353-1.2027 0.03861-1.2143 0.34699-1.2143 0.30838 0 0.31169 0.01158 0.34699 1.2143 0.04154 1.415-0.0089 1.3869 1.0968 0.60935 2.0527-1.4436 2.194-1.7882 2.1431-5.2296l-0.0375-2.5342-1.5567-0.60927c-0.8562-0.3351-1.5688-0.60976-1.5835-0.61036-0.01473-5.98e-4 -0.04275 0.57335-0.06227 1.2754-0.03528 1.2691-0.03729 1.2765-0.34684 1.2765-0.30966 0-0.31154-0.0069-0.34692-1.2835-0.03232-1.1662-0.05586-1.2771-0.25761-1.213-0.12212 0.03876-0.83467 0.31674-1.5834 0.61772l-1.3614 0.54724-0.03747 2.5961c-0.05009 3.4708 0.12232 3.8757 2.2394 5.259 1.0153 0.66342 0.9592 0.70277 1.0004-0.7014zm-0.30684-1.736c-0.15408-0.04027-0.21794-0.182-0.21794-0.48371 0-0.38206-0.03587-0.42695-0.34248-0.42866-0.87853-0.0049-0.99785-1.7703-0.12454-1.8426 0.43851-0.03629 0.46702-0.06399 0.46702-0.4537 0-0.46919 0.1494-0.56623 0.87177-0.56623s0.87177 0.09704 0.87177 0.56623c0 0.38971 0.02851 0.4174 0.46702 0.4537 0.8437 0.06983 0.73916 1.8445-0.10865 1.8445-0.32418 0-0.35837 0.04019-0.35837 0.42136 0 0.52646-0.62092 0.72552-1.5256 0.4891zm0.90291-1.0306c0-0.39249 0.27647-0.62708 0.73905-0.62708 0.5083 0 0.31604-0.47826-0.20976-0.52177-0.42637-0.03529-0.47042-0.07389-0.50605-0.4434-0.0288-0.29871-0.10015-0.40475-0.27232-0.40475s-0.24352 0.10604-0.27232 0.40475c-0.03563 0.36952-0.07968 0.40812-0.50604 0.4434-0.5258 0.04352-0.71806 0.52177-0.20976 0.52177 0.46257 0 0.73904 0.23459 0.73904 0.62708 0 0.28621 0.05601 0.36924 0.24908 0.36924 0.19307 0 0.24908-0.08303 0.24908-0.36924z" fill="#f92524" stroke-width=".12454"/></svg>
