<svg width="106" height="106" version="1.1" viewBox="0 0 28.046 28.046" xmlns="http://www.w3.org/2000/svg"><path d="m12.323 27.683c-9.9317-1.2909-14.927-13.499-8.947-21.865 5.9374-8.3061 18.203-7.1056 22.546 2.2066 4.5533 9.7638-3.2245 21.007-13.599 19.659zm3.6797-0.63703c8.2879-1.3535 13.053-10.714 9.4867-18.637-4.5389-10.084-18.426-10.084-22.965 0-4.2959 9.5443 3.4627 20.272 13.478 18.637zm-4.7262-6.011c-0.73481-0.4397-0.79578-1.1142-0.18432-2.0392 0.89712-1.3571 1.3768-3.0672 1.2724-4.5356-0.04155-0.58409-0.04155-0.58409-0.25984-0.16869-0.12006 0.22847-0.21828 0.54089-0.21828 0.69427 0 0.83108-0.75467 1.5456-1.4427 1.3659-1.7557-0.45853-0.87179-3.8036 1.2939-4.8968 1.2805-0.64634 2.59-0.4608 4.0404 0.57248 0.45214 0.32211 1.1131 0.68625 1.4688 0.80919 0.96971 0.33516 1.3417 1.0722 0.94458 1.8713-0.39934 0.80357-1.4366 0.78347-2.906-0.0563-0.81498-0.46578-0.78633 0.27461 0.04303 1.1119 1.7823 1.7994 2.7162 4.2497 1.9311 5.0667-0.73958 0.7696-1.4962 0.4424-2.0847-0.90157-0.86984-1.9862-0.8751-1.9893-1.432-0.83334-0.87528 1.8168-1.6515 2.4272-2.4664 1.9396zm1.4032-1.3504c0.29633-0.48187 0.67356-1.2266 0.83827-1.6549 0.32182-0.83686 0.43792-0.9857 0.69027-0.88493 0.26626 0.10633 1.2678 1.7394 1.5591 2.5421 0.28842 0.79491 0.67222 1.067 1.0477 0.74267 0.52833-0.45628-0.46808-2.622-1.9499-4.2382-1.0607-1.1569-1.1169-3.4918-0.06325-2.6294 0.88256 0.7224 2.4458 1.2716 2.742 0.96334 0.45488-0.47334 0.24268-0.81571-0.71023-1.1459-0.33188-0.115-0.88964-0.42306-1.2395-0.68458-2.423-1.8114-5.1356-0.75966-5.4193 2.1013-0.12525 1.2628 0.96117 1.3006 1.1238 0.039 0.08074-0.62645 0.55185-1.4097 0.99702-1.6576 1.319-0.73458 0.86722 3.9263-0.58355 6.02-0.5035 0.72661-0.53421 0.86712-0.25341 1.1593 0.3804 0.39584 0.65823 0.24289 1.221-0.67216zm0.4047-9.3815c-1.6337-0.51479-1.6282-2.9462 8e-3 -3.5081 1.2485-0.42876 2.5546 0.97093 2.1319 2.2846-0.28583 0.88816-1.3227 1.481-2.1398 1.2235zm1.2874-0.95956c0.54812-0.60713 0.32186-1.635-0.41565-1.8883-1.1305-0.38824-1.9943 0.99451-1.1828 1.8934 0.39224 0.43446 1.204 0.4319 1.5985-5e-3z" fill="#f92524"/></svg>
