<svg width="106" height="106" version="1.1" viewBox="0 0 28.046 28.046" xmlns="http://www.w3.org/2000/svg"><path d="m11.77 27.046c-9.5645-1.7162-14.143-12.823-8.5459-20.732 5.68-8.0266 18.143-7.1451 22.588 1.5976 4.9056 9.6484-3.4506 21.035-14.042 19.135zm3.5005-0.49892c10.615-1.1981 15.199-13.916 7.7324-21.456-7.2112-7.2818-19.665-3.3605-21.436 6.7493-1.242 7.0919 3.8408 13.862 11.033 14.695 1.3101 0.15179 1.4202 0.15225 2.6703 0.01115zm-4.5413-4.8448c-0.07091-0.13249-0.12892-0.3293-0.12892-0.43736 0-0.15818-0.09342-0.18153-0.47937-0.11981-1.0225 0.1635-3.3813-2.108-3.3813-3.2562 0-0.93848 2.5067-4.6857 3.4702-5.1874 0.99814-0.51977 6.4241-0.54397 7.4491-0.03323 1.3302 0.66286 3.688 4.6038 3.3982 5.6799-0.2896 1.0755-2.4047 2.9248-3.2201 2.8155-0.42598-0.05714-0.48031-0.0305-0.60347 0.29578-0.07444 0.19721-0.22809 0.39416-0.34145 0.43766-0.41976 0.16108-0.47264-0.11985-0.32338-1.718 0.07892-0.84496 0.20086-2.1528 0.27099-2.9062 0.21121-2.2692 0.33469-2.3275 1.541-0.72824 1.0006 1.3265 1.0034 1.2432-0.0793 2.3598-0.95388 0.98374-1.073 1.5442-0.32827 1.5442 0.47427 0 2.3412-1.9933 2.3412-2.4996 0-1.4735-2.8716-4.9364-4.0015-4.8253-0.50771 0.0499-1.8946 3.0205-1.5365 3.2912 0.2417 0.18272 0.23188 0.32451-0.08214 1.1857-0.34274 0.94-0.4481 1.0219-1.048 0.81416-0.69204-0.23959-0.77001-0.43442-0.49624-1.2398 0.32124-0.94508-0.83191-3.9815-1.5386-4.0512-0.99743-0.09842-1.5315 0.40399-3.1638 2.976-1.1663 1.8378-1.1593 1.9549 0.19929 3.3135 1.0613 1.0613 1.2927 1.1803 1.6332 0.83975 0.30193-0.30193 0.25758-0.38972-0.69112-1.3681-1.0526-1.0855-1.0526-1.0801-0.01456-2.4205 0.78433-1.0128 1.0792-1.1818 1.2665-0.7259 0.14658 0.35675 0.63924 5.7897 0.54684 6.0305-0.09762 0.2544-0.50893 0.21272-0.65849-0.06673zm-0.43657-4.3289c-0.08017-0.42734-0.08017-0.42734-0.32215-0.11972-0.30525 0.38807-0.30296 0.43611 0.038235 0.80118 0.33293 0.35623 0.43336 0.11517 0.28391-0.68147zm7.9045 0.30223c0-0.27604-0.4694-0.71953-0.54714-0.51694-0.23791 0.61998-0.08375 1.2239 0.23579 0.92376 0.17124-0.16087 0.31135-0.34394 0.31135-0.40682zm-3.623-3.3638 0.49273-1.211h-2.2213l0.26433 0.65383c0.14538 0.35961 0.38222 0.94578 0.5263 1.3026 0.31514 0.78044 0.318 0.77816 0.93793-0.74544zm-1.8284-2.8445c-1.7331-0.85785-2.0629-3.2824-0.61899-4.5502 1.8176-1.5959 4.7077-0.18469 4.5465 2.2199-0.13038 1.9447-2.2117 3.1796-3.9275 2.3302zm2.0389-0.72096c1.4092-0.64 1.5428-2.4645 0.25106-3.4289-0.48483-0.36198-1.6626-0.35993-2.1535 0.0038-2.0132 1.4917-0.36691 4.4557 1.9024 3.4251z" fill="#f92524" stroke-width=".12454"/></svg>
