<?xml version="1.0" encoding="UTF-8" standalone="no"?>
<svg
   xmlns:dc="http://purl.org/dc/elements/1.1/"
   xmlns:cc="http://creativecommons.org/ns#"
   xmlns:rdf="http://www.w3.org/1999/02/22-rdf-syntax-ns#"
   xmlns:svg="http://www.w3.org/2000/svg"
   xmlns="http://www.w3.org/2000/svg"
   xmlns:sodipodi="http://sodipodi.sourceforge.net/DTD/sodipodi-0.dtd"
   xmlns:inkscape="http://www.inkscape.org/namespaces/inkscape"
   sodipodi:docname="plan.svg"
   inkscape:version="1.0rc1 (09960d6, 2020-04-09)"
   id="svg1169"
   version="1.1"
   viewBox="0 0 63.499999 63.500002"
   height="240"
   width="240">
  <defs
     id="defs1163" />
  <sodipodi:namedview
     inkscape:window-maximized="1"
     inkscape:window-y="23"
     inkscape:window-x="1440"
     inkscape:window-height="987"
     inkscape:window-width="1920"
     units="px"
     showgrid="false"
     inkscape:document-rotation="0"
     inkscape:current-layer="layer1"
     inkscape:document-units="px"
     inkscape:cy="43.181853"
     inkscape:cx="35.421752"
     inkscape:zoom="1.3591793"
     inkscape:pageshadow="2"
     inkscape:pageopacity="0.0"
     borderopacity="1.0"
     bordercolor="#666666"
     pagecolor="#ffffff"
     id="base" />
  <metadata
     id="metadata1166">
    <rdf:RDF>
      <cc:Work
         rdf:about="">
        <dc:format>image/svg+xml</dc:format>
        <dc:type
           rdf:resource="http://purl.org/dc/dcmitype/StillImage" />
        <dc:title></dc:title>
      </cc:Work>
    </rdf:RDF>
  </metadata>
  <g
     id="layer1"
     inkscape:groupmode="layer"
     inkscape:label="Layer 1">
    <path
       inkscape:connector-curvature="0"
       id="path1237"
       d="m 15.467734,49.593362 c -1.87972,-0.371673 -2.861078,-1.613246 -3.049252,-3.857774 l -0.09218,-1.099535 h -1.687781 c -3.2089828,0 -3.8693628,-0.798001 -4.4338878,-5.357892 -0.130669,-1.055467 -0.23758,-1.964965 -0.23758,-2.021106 0,-0.05615 -0.433272,-0.147362 -0.962826,-0.202712 -2.678697,-0.279979 -3.681309,-1.702861 -3.681309,-5.224425 0,-3.365891 0.852233,-4.483482 3.706279,-4.86029 l 1.235007,-0.163054 -0.08953,-1.067861 c -0.321986,-3.840655 1.230289,-5.830141 4.5565028,-5.839881 l 1.64135,-0.0048 1.11e-4,-1.375796 c 3.21e-4,-3.298131 1.072469,-4.510733 4.175025,-4.721736 5.320947,-0.361873 5.967868,0.466124 6.046545,7.738993 l 0.0524,4.844313 h 9.1854 9.185398 l 0.05058,-4.924384 c 0.07368,-7.173743 0.393823,-7.646807 5.174915,-7.646807 3.543219,0 4.884349,1.087262 4.884349,3.959771 v 0.879902 l 1.820611,0.08035 c 3.232352,0.142644 3.925887,0.983485 4.416892,5.355048 0.268106,2.387028 0.228776,2.296125 0.993419,2.296125 2.722601,0 3.818914,1.485369 3.818914,5.174156 0,3.569509 -1.050637,4.914826 -3.838278,4.914826 h -0.965998 v 1.593544 c 0,4.055453 -1.265059,5.549015 -4.670958,5.514658 l -1.548178,-0.01561 -0.05325,1.778447 c -0.102808,3.43396 -1.688002,4.623118 -5.846689,4.386001 -3.731553,-0.212765 -4.215456,-1.158837 -4.215456,-8.241605 V 36.628945 H 31.843647 22.64902 l -0.05361,5.08922 c -0.06107,5.798452 -0.127903,6.110908 -1.536784,7.185498 -1.034936,0.789368 -3.530151,1.097193 -5.590895,0.689724 z m 3.380412,-2.223545 c 1.496773,-0.245649 1.371594,1.181203 1.371594,-15.634052 0,-17.414491 0.262357,-15.647794 -2.337651,-15.741666 -1.770257,-0.06391 -2.68519,0.139243 -2.984475,0.662685 -0.460689,0.805728 -0.358917,29.676889 0.106856,30.313872 0.334855,0.45794 2.264509,0.658334 3.843676,0.399161 z m 29.502591,-0.253849 c 0.550908,-0.360968 0.550222,-0.339303 0.500837,-15.807372 -0.05455,-17.085965 0.240172,-15.224868 -2.424777,-15.311804 -2.101001,-0.06854 -2.724393,0.149181 -2.984376,1.042293 -0.414447,1.423734 -0.135054,29.436593 0.298192,29.897705 0.573621,0.610516 3.762655,0.734462 4.610124,0.179178 z M 12.372755,32.305075 V 22.216094 h -1.353676 c -2.6775508,0 -2.5200468,-0.670236 -2.4588368,10.463258 0.05784,10.519938 -0.139449,9.714705 2.3801588,9.714705 h 1.432354 z m 41.962984,8.724857 c 0.709135,-0.366708 0.71501,-0.450016 0.71501,-10.140014 0,-10.609094 0.193782,-9.794823 -2.330997,-9.794823 h -1.432353 v 10.088982 10.088982 h 1.289093 c 0.839508,0 1.453065,-0.08479 1.759247,-0.243127 z M 6.1271952,31.984791 v -2.722424 h -0.880784 c -1.183267,0 -1.457785,0.285018 -1.605807,1.667221 -0.290616,2.713731 0.190262,3.777626 1.707475,3.777626 h 0.779116 z M 40.878132,31.504363 v -2.722424 h -9.128127 -9.128127 v 2.722424 2.722423 h 9.128127 9.128127 z m 18.704774,2.342984 c 0.219771,-0.219405 0.282181,-0.648587 0.324426,-2.230987 0.06643,-2.488457 -0.117294,-2.834421 -1.505212,-2.834421 h -0.869162 v 2.742254 2.742253 l 0.888915,-0.07371 c 0.539587,-0.04474 0.995852,-0.180476 1.161033,-0.345384 z"
       style="fill:#f92524;stroke-width:0.160142;fill-opacity:1" />
  </g>
</svg>
